<svg width="650" height="165" viewBox="0 0 650 165" fill="none" xmlns="http://www.w3.org/2000/svg">
<path d="M0 31.6169C0 13.3009 12.8648 0 30.7447 0C44.0456 0 55.8202 9.15798 58.8728 21.5867L51.4592 22.6769C49.2787 13.5189 40.5568 6.97751 30.7447 6.97751C17.2257 6.97751 7.63166 17.4438 7.63166 31.8349C7.63166 46.2261 17.2257 56.9104 30.7447 56.9104C40.3388 56.9104 49.0607 50.369 51.4592 41.6471L58.8728 43.1734C56.0382 54.948 44.2636 63.6699 30.7447 63.6699C12.8648 63.2338 0 49.9329 0 31.6169Z" fill="white"/>
<path d="M67.375 31.6169C67.375 13.0828 80.6759 0 99.428 0C118.18 0 131.481 13.3009 131.481 31.6169C131.481 50.369 118.18 63.4518 99.428 63.4518C80.6759 63.4518 67.375 50.1509 67.375 31.6169ZM123.631 31.6169C123.631 17.0077 113.601 6.75947 99.428 6.75947C85.2549 6.75947 75.0067 17.2258 75.0067 31.6169C75.0067 46.008 85.2549 56.6923 99.428 56.6923C113.601 56.6923 123.631 46.008 123.631 31.6169Z" fill="white"/>
<path d="M139.984 31.6169C139.984 13.0828 153.285 0 172.037 0C190.789 0 204.09 13.3009 204.09 31.6169C204.09 50.369 190.789 63.4518 172.037 63.4518C153.285 63.4518 139.984 50.1509 139.984 31.6169ZM196.459 31.6169C196.459 17.0077 186.428 6.75947 172.255 6.75947C158.082 6.75947 147.834 17.2258 147.834 31.6169C147.834 46.008 158.082 56.6923 172.255 56.6923C186.428 56.6923 196.459 46.008 196.459 31.6169Z" fill="white"/>
<path d="M216.301 1.95898H257.512V8.50041H224.151V24.6359H240.722C254.023 24.6359 261.873 31.6135 261.873 42.9519C261.873 54.2904 253.587 61.2679 240.286 61.2679H216.519V1.95898H216.301ZM238.76 54.5084C248.354 54.5084 254.023 49.9294 254.023 42.9519C254.023 35.9744 248.354 31.3954 239.414 31.3954H223.932V54.5084H238.76Z" fill="white"/>
<path d="M342.985 61.2679H272.992V1.95898H280.624V54.5084H303.083V1.95898H310.714V54.5084H332.955V1.95898H340.587V54.5084H350.835V73.9147H343.203V61.2679H342.985Z" fill="white"/>
<path d="M361.09 1.95898H401.865V8.71847H368.94V27.2525H398.594V34.012H368.94V54.5084H402.737V61.2679H361.308V1.95898H361.09Z" fill="white"/>
<path d="M411.242 31.6169C411.242 13.3009 424.107 0 441.987 0C455.288 0 467.062 9.15798 470.115 21.5867L462.701 22.6769C460.521 13.5189 451.799 6.97751 441.987 6.97751C428.468 6.97751 418.874 17.4438 418.874 31.8349C418.874 46.2261 428.468 56.9104 441.987 56.9104C451.581 56.9104 460.303 50.369 462.701 41.6471L470.115 43.1734C467.28 54.948 455.506 63.6699 441.987 63.6699C424.107 63.2338 411.242 49.9329 411.242 31.6169Z" fill="white"/>
<path d="M496.058 8.71847H476.434V1.95898H523.314V8.71847H503.69" fill="white"/>
<path d="M497.581 8.71851V61.2679H491.039V8.71851" fill="white"/>
<path d="M508.706 8.71851V61.2679H502.164V8.71851" fill="white"/>
<path d="M530.941 1.95898H556.67C567.573 1.95898 575.422 8.50042 575.422 17.8765C575.422 23.5457 571.716 28.5608 566.7 30.0871V30.9593C572.806 32.7037 576.949 38.1549 576.949 44.4782C576.949 54.0723 568.445 61.0499 556.452 61.0499H530.723V1.95898H530.941ZM555.798 27.4706C562.776 27.4706 568.009 23.5457 568.009 18.0945C568.009 12.6433 562.994 8.71847 555.798 8.71847H538.572V27.4706H555.798ZM555.58 54.5084C563.648 54.5084 569.535 50.1475 569.535 44.2602C569.535 38.3729 563.648 34.23 555.58 34.23H538.572V54.5084H555.58Z" fill="white"/>
<path d="M585.891 31.6169C585.891 13.0828 599.191 0 617.944 0C636.696 0 649.997 13.3009 649.997 31.6169C649.997 50.369 636.696 63.4518 617.944 63.4518C598.973 63.2338 585.891 50.1509 585.891 31.6169ZM642.147 31.6169C642.147 17.0077 632.117 6.75947 617.944 6.75947C603.77 6.75947 593.522 17.2258 593.522 31.6169C593.522 46.008 603.77 56.6923 617.944 56.6923C632.117 56.6923 642.147 46.008 642.147 31.6169Z" fill="white"/>
<path d="M39.6846 162.008L48.4065 112.947H47.7524L10.9024 162.008H0L10.4663 102.699H18.0979L9.37605 151.759H10.0302L46.6622 102.699H57.5645L47.0983 162.008H39.6846Z" fill="white"/>
<path d="M63.2354 141.947L70.649 142.383C69.1226 151.323 74.3558 157.429 83.9499 157.429C92.6718 157.429 100.303 152.414 101.612 145.436C102.702 139.113 97.6869 134.752 89.4011 134.752H81.7694L82.8596 127.992H90.4913C97.4688 127.992 103.574 123.413 104.446 117.308C105.537 111.421 100.521 107.496 93.1079 107.496C84.1679 107.496 76.9723 113.383 75.6641 121.015L68.2505 120.579C70.4309 108.804 80.4611 100.736 93.544 100.736C105.755 100.736 113.822 107.714 112.078 117.744C110.988 124.285 106.191 129.082 99.8673 130.609L99.2132 131.481C105.973 132.789 110.116 139.113 108.807 146.962C107.063 156.993 96.3786 164.188 83.7318 164.188C69.1226 164.188 61.0549 154.812 63.2354 141.947Z" fill="white"/>
<path d="M157.435 162.008L166.157 112.947H165.503L128.871 162.008H117.969L128.435 102.699H136.067L127.345 151.759H127.999L164.631 102.699H175.533L165.067 162.008H157.435Z" fill="white"/>
<path d="M181.414 132.353C181.414 113.819 194.715 100.736 213.467 100.736C232.219 100.736 245.52 114.037 245.52 132.353C245.52 151.105 232.219 164.188 213.467 164.188C194.715 164.188 181.414 151.105 181.414 132.353ZM237.67 132.353C237.67 117.744 227.64 107.496 213.467 107.496C199.294 107.496 189.046 117.962 189.046 132.353C189.046 146.744 199.294 157.429 213.467 157.429C227.64 157.429 237.67 146.962 237.67 132.353Z" fill="white"/>
<path d="M257.516 102.917H265.147V127.774H296.982V102.917H304.614V162.226H296.982V134.534H265.147V162.008H257.516V102.917Z" fill="white"/>
<path d="M360.653 162.008V112.947H359.78L331.652 162.008H320.75V102.699H328.382V151.977H329.036L357.164 102.917H368.066V162.226H360.653V162.008Z" fill="white"/>
<path d="M380.715 132.353C380.715 114.037 393.58 100.736 411.46 100.736C424.76 100.736 436.535 109.894 439.588 122.323L432.174 123.413C429.994 114.255 421.272 107.714 411.46 107.714C397.941 107.714 388.347 118.18 388.347 132.571C388.347 146.962 397.941 157.647 411.46 157.647C421.054 157.647 429.776 151.105 432.174 142.383L439.588 143.91C436.753 155.684 424.978 164.406 411.46 164.406C393.58 164.188 380.715 150.887 380.715 132.353Z" fill="white"/>
<path d="M464.218 109.676H444.594V102.917H491.474V109.676H471.85V162.226H464.218V109.676Z" fill="white"/>
<path d="M496.281 132.353C496.281 113.819 509.582 100.736 528.334 100.736C547.086 100.736 560.387 114.037 560.387 132.353C560.387 151.105 547.086 164.188 528.334 164.188C509.582 164.188 496.281 151.105 496.281 132.353ZM552.756 132.353C552.756 117.744 542.725 107.496 528.552 107.496C514.379 107.496 504.131 117.962 504.131 132.353C504.131 146.744 514.379 157.429 528.552 157.429C542.725 157.429 552.756 146.962 552.756 132.353Z" fill="white"/>
<path d="M572.593 102.917H598.323C609.225 102.917 617.075 109.458 617.075 118.834C617.075 124.503 613.368 129.519 608.353 131.045V131.917C614.458 133.661 618.601 139.113 618.601 145.436C618.601 155.03 610.097 162.008 598.105 162.008H572.375V102.917H572.593ZM597.669 128.21C604.646 128.21 609.879 124.285 609.879 118.834C609.879 113.383 604.864 109.458 597.669 109.458H580.443V128.21H597.669ZM597.45 155.466C605.518 155.466 611.405 151.105 611.405 145.218C611.405 139.331 605.518 135.188 597.45 135.188H580.443V155.466H597.45Z" fill="white"/>
</svg>
