<svg width="714" height="329" viewBox="0 0 714 329" fill="none" xmlns="http://www.w3.org/2000/svg">
<path d="M507.209 141.396C506.15 137.495 504.593 133.774 502.274 130.466C498.712 125.393 493.587 121.632 488.306 118.39C476.515 111.15 462.584 105.915 448.976 108.424C434.59 111.077 423.26 121.705 411.75 130.728C375.646 159.027 331.268 174.524 292.442 198.955C286.825 202.489 281.068 206.5 278.248 212.507C276.328 216.594 275.965 221.225 275.809 225.739C275.58 232.378 275.736 239.029 276.276 245.65C276.594 249.539 277.067 253.501 278.743 257.023C284.014 268.097 298.58 270.807 307.374 279.351C319.486 288.56 331.597 297.766 343.712 306.972C350.934 312.46 358.226 317.994 366.455 321.809C380.103 328.14 395.566 329.398 410.602 328.903C422.079 328.525 434.209 326.913 443.174 319.737C449.333 314.804 453.344 307.75 458.35 301.652C463.637 295.208 470.129 289.76 477.388 285.666C482.143 282.986 487.277 280.844 491.404 277.272C501.382 268.64 503.128 254.077 504.194 240.925C505.494 224.845 506.797 208.762 508.098 192.682C509.148 179.694 510.201 166.639 509.178 153.648C508.855 149.543 508.296 145.376 507.215 141.399L507.209 141.396Z" fill="#0067FF"/>
<mask id="mask0_261_5278" style="mask-type:alpha" maskUnits="userSpaceOnUse" x="275" y="107" width="235" height="222">
<path d="M507.209 141.396C506.15 137.495 504.593 133.774 502.274 130.466C498.712 125.393 493.587 121.632 488.306 118.39C476.515 111.15 462.584 105.915 448.976 108.424C434.59 111.077 423.26 121.705 411.75 130.728C375.646 159.027 331.268 174.524 292.442 198.955C286.825 202.489 281.068 206.5 278.248 212.507C276.328 216.594 275.965 221.225 275.809 225.739C275.58 232.378 275.736 239.029 276.276 245.65C276.594 249.539 277.067 253.501 278.743 257.023C284.014 268.097 298.58 270.807 307.374 279.351C319.486 288.56 331.597 297.766 343.712 306.972C350.934 312.46 358.226 317.994 366.455 321.809C380.103 328.14 395.566 329.398 410.602 328.903C422.079 328.525 434.209 326.913 443.174 319.737C449.333 314.804 453.344 307.75 458.35 301.652C463.637 295.208 470.129 289.76 477.388 285.666C482.143 282.986 487.277 280.844 491.404 277.272C501.382 268.64 503.128 254.077 504.194 240.925C505.494 224.845 506.797 208.762 508.098 192.682C509.148 179.694 510.201 166.639 509.178 153.648C508.855 149.543 508.296 145.376 507.215 141.399L507.209 141.396Z" fill="#003DA3"/>
</mask>
<g mask="url(#mask0_261_5278)">
<path d="M440.53 194.838C440.972 194.999 441.287 195.195 441.616 195.219C443.637 195.369 445.285 196.443 446.964 197.399C448.222 198.116 449.421 198.333 450.871 197.969C453.569 197.295 456.323 196.962 459.131 197.161C462.443 197.396 464.723 199.193 466.27 201.941C466.698 202.701 466.536 203.815 466.569 204.77C466.597 205.558 466.554 206.354 466.472 207.139C466.325 208.543 465.675 209.761 464.796 210.811C463.813 211.986 462.794 213.161 461.267 213.714C460.764 213.897 460.767 214.348 460.868 214.834C461.35 217.141 461.429 219.479 461.045 221.796C460.605 224.452 459.851 227.016 458.725 229.491C458.117 230.825 457.333 232.016 456.549 233.218C454.934 235.697 453.142 238.117 450.618 239.665C448.554 240.928 446.451 242.18 443.951 242.72C439.412 243.697 435.215 242.97 431.156 240.941C430.606 240.666 430.136 240.245 429.602 239.936C428.769 239.451 427.917 238.99 427.066 238.535C426.678 238.328 426.217 238.224 425.881 237.958C425.14 237.375 424.279 237.33 423.284 237.165C423.201 237.788 423.122 238.337 423.061 238.893C422.896 240.361 422.67 241.783 421.385 242.781C420.357 243.581 416.971 243.947 416.001 243.288C414.758 242.442 413.895 241.292 413.385 239.881C412.771 238.184 412.066 236.509 411.599 234.772C411.056 232.754 410.858 230.697 412.036 228.759C412.185 228.511 412.164 228.093 412.091 227.785C411.602 225.688 410.946 223.618 410.613 221.5C410.357 219.867 410.491 218.173 410.455 216.503C410.449 216.284 410.494 216.061 410.479 215.844C410.47 215.725 410.378 215.615 410.284 215.414C410.036 215.517 409.777 215.572 409.588 215.716C407.741 217.126 405.662 218.225 404.078 219.986C403.346 220.798 402.485 221.509 401.618 222.181C399.512 223.814 397.021 224.528 394.472 225.151C392.559 225.618 390.721 226.399 388.816 226.909C387.861 227.165 386.826 227.202 385.828 227.208C383.447 227.226 381.048 227.345 378.692 227.098C376.116 226.826 373.567 226.24 371.027 225.694C369.181 225.297 367.367 224.751 365.545 224.256C365.035 224.119 364.553 223.89 364.043 223.753C363.561 223.622 363.061 223.557 362.42 223.435C362.465 223.93 362.478 224.22 362.517 224.507C362.722 225.99 362.92 227.474 363.146 228.954C363.213 229.381 363.274 229.857 363.5 230.205C364.162 231.228 364.922 232.186 365.615 233.191C366.137 233.948 366.711 234.689 367.087 235.52C367.798 237.082 369.119 238.316 369.48 240.059C369.513 240.223 369.626 240.385 369.742 240.513C370.82 241.704 371.11 243.309 371.903 244.631C373.35 247.039 374.07 249.783 375.575 252.155C376.167 253.092 376.268 254.136 375.771 255.192C374.858 257.133 373.545 258.556 371.256 258.739C370.17 258.828 369.08 258.913 367.822 259.014C367.822 259.731 367.844 260.509 367.819 261.285C367.77 262.78 367.694 264.279 367.633 265.775C367.621 266.04 367.572 266.315 367.627 266.568C368.033 268.388 366.842 269.502 365.667 270.393C363.72 271.861 361.711 271.715 359.672 270.228C358.586 269.438 357.548 268.574 356.464 267.722C356.446 267.731 356.327 267.747 356.303 267.805C355.649 269.34 355.008 270.881 354.361 272.42C354.309 272.542 354.285 272.697 354.193 272.774C352.957 273.83 352.31 275.31 351.37 276.577C350.93 277.169 350.137 277.532 349.447 277.89C348.785 278.228 348.04 278.402 347.344 278.686C345.699 279.358 343.62 278.143 343.412 276.366C343.315 275.533 343.248 274.697 343.132 273.867C343.077 273.476 342.942 273.1 342.845 272.716C342.152 273.299 341.425 273.836 340.79 274.468C340.394 274.862 340.119 275.387 339.829 275.878C339.206 276.937 338.666 278.088 337.488 278.64C336.908 278.912 336.236 279.04 335.592 279.126C334.735 279.239 333.849 279.162 333.001 279.315C331.078 279.66 329.445 278.421 329.671 276.482C329.842 275.017 330.403 273.595 330.815 272.163C330.943 271.721 331.148 271.303 331.444 270.561C329.997 271.064 328.877 271.507 327.726 271.843C325.779 272.411 323.828 272.948 321.786 272.179C319.323 271.254 318.539 269.267 319.253 266.987C319.628 265.784 320.178 264.639 320.773 263.498C321.841 261.44 323.383 259.768 324.643 257.878C325.251 256.969 325.736 255.974 326.344 255.061C326.945 254.154 327.626 253.303 328.273 252.43C328.508 252.115 328.908 251.838 328.966 251.496C329.246 249.851 330.516 248.654 330.889 247.067C330.995 246.612 331.023 246.139 331.066 245.672C331.084 245.455 330.974 245.211 331.041 245.019C331.401 243.969 331.087 242.955 331.011 241.908C330.748 238.3 330.623 234.686 330.449 231.072C330.364 229.314 330.272 227.556 330.211 225.798C330.125 223.341 330.077 220.88 329.982 218.423C329.942 217.373 329.817 216.326 329.762 215.276C329.732 214.706 329.784 214.132 329.777 213.558C329.756 211.714 329.726 209.871 329.695 208.027C329.683 207.365 329.671 206.702 329.646 206.043C329.579 204.19 329.466 202.337 329.445 200.485C329.436 199.612 329.591 198.736 329.671 197.859C329.735 197.161 329.948 196.434 329.823 195.769C329.442 193.69 329.893 191.642 329.909 189.581C329.924 187.469 329.939 185.348 330.138 183.248C330.425 180.232 330.306 177.171 331.005 174.198C331.496 172.104 332.537 170.269 333.862 168.59C334.46 167.83 335.028 167.043 335.653 166.307C336.105 165.773 336.627 165.3 337.118 164.802C338.751 163.148 341.01 162.431 342.802 160.999C343.577 160.379 344.575 160.038 345.47 159.564C349.3 157.553 353.278 155.905 357.432 154.675C359.669 154.012 361.87 153.234 364.101 152.55C365.869 152.007 367.737 151.705 369.416 150.969C371.317 150.133 373.329 149.696 375.243 148.948C375.645 148.79 375.993 148.494 376.381 148.286C377.001 147.953 377.599 147.541 378.261 147.343C380.258 146.748 382.028 145.67 383.896 144.803C385.172 144.211 386.463 143.637 387.69 142.95C389.5 141.937 391.499 141.391 393.368 140.53C395.88 139.373 398.407 138.207 400.779 136.794C402.421 135.814 403.834 134.434 405.308 133.189C406.416 132.252 407.503 131.281 408.529 130.256C410.305 128.479 412.051 126.675 413.76 124.835C415.256 123.223 416.608 121.471 418.159 119.914C421.239 116.822 424.416 113.846 428.024 111.337C430.2 109.823 432.502 108.55 434.806 107.277C437.535 105.77 440.34 104.396 443.109 102.961C444.043 102.476 444.937 101.908 445.902 101.499C447.556 100.794 449.18 99.909 451.091 100.223C452.443 99.5518 453.371 100.55 454.305 101.173C454.839 101.527 455.144 102.268 455.474 102.879C455.886 103.645 456.228 104.454 456.582 105.251C456.796 105.733 457.019 106.221 457.165 106.728C457.708 108.587 458.23 110.443 458.325 112.405C458.441 114.82 458.719 117.228 458.871 119.639C458.972 121.211 458.972 122.79 459.033 124.365C459.064 125.192 459.128 126.019 459.183 126.846C459.363 129.615 459.494 132.386 459.747 135.149C459.946 137.297 460.3 139.434 460.578 141.577C460.623 141.928 460.651 142.282 460.636 142.636C460.55 144.751 460.776 146.845 460.947 148.951C461.155 151.485 461.191 154.046 461.087 156.588C461.02 158.249 460.651 159.915 460.263 161.539C459.766 163.63 459.158 165.7 458.508 167.751C458.124 168.966 457.544 170.117 457.083 171.307C455.898 174.359 454.259 177.18 452.58 179.967C451.378 181.963 449.882 183.782 448.527 185.687C447.858 186.623 446.969 187.444 446.351 188.357C444.91 190.494 442.926 192.118 441.128 193.919C440.899 194.148 440.774 194.481 440.554 194.838H440.53Z" fill="#003DA3"/>
</g>
<path d="M353.238 -10.7309C363.564 17.7629 368.57 48.1737 367.92 78.4715C367.832 82.5708 367.896 87.2806 371.021 89.9331C372.389 91.093 374.156 91.6608 375.902 92.0576C386.469 94.4598 397.412 91.5875 408.175 90.3208C422.957 88.5779 437.914 89.8813 452.797 89.5638C459.879 89.4112 468.538 87.7354 470.7 80.9897C471.969 77.0308 470.284 72.5835 467.43 69.5616C464.577 66.5367 459.867 63.9209 456.894 63.057C452.507 61.7811 445.035 61.3782 438.824 60.3404C435.945 59.8582 418.3 54.4921 415.626 53.32C408.605 50.2401 412.903 12.3602 411.496 -0.114807C411.114 -3.51515 410.754 -7.0559 408.956 -9.9648C406.307 -14.2564 401.139 -16.2313 396.222 -17.3515C383.86 -20.1719 370.692 -19.3569 358.775 -15.0317" fill="#F64791"/>
<path d="M259.161 -3.20685C262.348 30.7019 258.957 65.2151 249.232 97.8541C248.185 101.367 247.272 104.929 247.01 108.586C246.219 119.553 293.449 146.954 312.965 157.207C316.65 159.143 320.447 161.026 324.552 161.716C328.658 162.406 333.526 157.784 335.351 154.045C341.456 141.53 331.994 135.92 327.415 131.763C318.509 123.677 308.851 117.871 299.944 109.786C296.446 106.611 292.377 106.483 290.482 102.155C288.949 98.6507 289.777 85.318 289.505 81.5025C288.495 67.4128 306.076 20.9984 308.06 12.8791C309.486 7.04606 310.78 1.1794 311.946 -4.71167C312.331 -3.80206 312.715 -2.89246 313.1 -1.98285L259.167 -3.20685H259.161Z" fill="#F64791"/>
</svg>
