<svg width="150" height="64" viewBox="0 0 150 64" fill="none" xmlns="http://www.w3.org/2000/svg">
<path d="M0 32C0 14.3269 14.3269 0 32 0H118C135.673 0 150 14.3269 150 32C150 49.6731 135.673 64 118 64H32C14.3269 64 0 49.6731 0 32Z" fill="white"/>
<path d="M18.5 23.398C18.5 20.2709 20.7365 18 23.8448 18C26.1572 18 28.2041 19.5636 28.7348 21.6855L27.446 21.8717C27.0669 20.3081 25.5506 19.1913 23.8448 19.1913C21.4946 19.1913 19.8267 20.9782 19.8267 23.4352C19.8267 25.8923 21.4946 27.7164 23.8448 27.7164C25.5127 27.7164 27.029 26.5996 27.446 25.1105L28.7348 25.3711C28.242 27.3814 26.1951 28.8705 23.8448 28.8705C20.7365 28.796 18.5 26.5251 18.5 23.398Z" fill="#001A3E"/>
<path d="M30.2126 23.398C30.2126 20.2337 32.5249 18 35.7849 18C39.0448 18 41.3572 20.2709 41.3572 23.398C41.3572 26.5996 39.0448 28.8332 35.7849 28.8332C32.5249 28.8332 30.2126 26.5624 30.2126 23.398ZM39.9925 23.398C39.9925 20.9038 38.2488 19.1541 35.7849 19.1541C33.3209 19.1541 31.5393 20.941 31.5393 23.398C31.5393 25.855 33.3209 27.6792 35.7849 27.6792C38.2488 27.6792 39.9925 25.855 39.9925 23.398Z" fill="#001A3E"/>
<path d="M42.8358 23.398C42.8358 20.2337 45.1481 18 48.4081 18C51.6681 18 53.9804 20.2709 53.9804 23.398C53.9804 26.5996 51.6681 28.8332 48.4081 28.8332C45.1481 28.8332 42.8358 26.5624 42.8358 23.398ZM52.6537 23.398C52.6537 20.9038 50.9099 19.1541 48.446 19.1541C45.9821 19.1541 44.2005 20.941 44.2005 23.398C44.2005 25.855 45.9821 27.6792 48.446 27.6792C50.9099 27.6792 52.6537 25.855 52.6537 23.398Z" fill="#001A3E"/>
<path d="M56.1032 18.3345H63.2675V19.4513H57.4678V22.2061H60.3487C62.661 22.2061 64.0257 23.3974 64.0257 25.3333C64.0257 27.2691 62.5852 28.4604 60.2729 28.4604H56.1411V18.3345H56.1032ZM60.0076 27.3063C61.6755 27.3063 62.661 26.5246 62.661 25.3333C62.661 24.142 61.6755 23.3602 60.1213 23.3602H57.4299V27.3063H60.0076Z" fill="#001A3E"/>
<path d="M78.127 28.4604H65.9589V18.3345H67.2857V27.3063H71.19V18.3345H72.5168V27.3063H76.3833V18.3345H77.71V27.3063H79.4916V30.6196H78.1649V28.4604H78.127Z" fill="#001A3E"/>
<path d="M81.2741 18.3345H88.3627V19.4885H82.6388V22.6529H87.7941V23.8069H82.6388V27.3063H88.5143V28.4604H81.312V18.3345H81.2741Z" fill="#001A3E"/>
<path d="M89.9927 23.398C89.9927 20.2709 92.2292 18 95.3375 18C97.6498 18 99.6968 19.5636 100.227 21.6855L98.9387 21.8717C98.5596 20.3081 97.0433 19.1913 95.3375 19.1913C92.9873 19.1913 91.3194 20.9782 91.3194 23.4352C91.3194 25.8923 92.9873 27.7164 95.3375 27.7164C97.0054 27.7164 98.5217 26.5996 98.9387 25.1105L100.227 25.3711C99.7347 27.3814 97.6877 28.8705 95.3375 28.8705C92.2292 28.796 89.9927 26.5251 89.9927 23.398Z" fill="#001A3E"/>
<path d="M104.738 19.4885H101.326V18.3345H109.476V19.4885H106.065" fill="#001A3E"/>
<path d="M105.003 19.4885V28.4604H103.865V19.4885" fill="#001A3E"/>
<path d="M106.936 19.4885V28.4604H105.799V19.4885" fill="#001A3E"/>
<path d="M110.802 18.3345H115.275C117.171 18.3345 118.535 19.4513 118.535 21.0521C118.535 22.02 117.891 22.8762 117.019 23.1368V23.2857C118.08 23.5836 118.801 24.5143 118.801 25.5939C118.801 27.2319 117.322 28.4232 115.237 28.4232H110.764V18.3345H110.802ZM115.124 22.6901C116.337 22.6901 117.246 22.02 117.246 21.0893C117.246 20.1586 116.375 19.4885 115.124 19.4885H112.129V22.6901H115.124ZM115.086 27.3063C116.488 27.3063 117.512 26.5618 117.512 25.5566C117.512 24.5515 116.488 23.8442 115.086 23.8442H112.129V27.3063H115.086Z" fill="#001A3E"/>
<path d="M120.355 23.398C120.355 20.2337 122.667 18 125.927 18C129.187 18 131.5 20.2709 131.5 23.398C131.5 26.5996 129.187 28.8332 125.927 28.8332C122.629 28.796 120.355 26.5624 120.355 23.398ZM130.135 23.398C130.135 20.9038 128.391 19.1541 125.927 19.1541C123.463 19.1541 121.682 20.941 121.682 23.398C121.682 25.855 123.463 27.6792 125.927 27.6792C128.391 27.6792 130.135 25.855 130.135 23.398Z" fill="#001A3E"/>
<path d="M25.399 45.6599L26.9153 37.2836H26.8016L20.3953 45.6599H18.5L20.3195 35.5339H21.6463L20.13 43.9101H20.2437L26.612 35.5339H28.5074L26.6879 45.6599H25.399Z" fill="#001A3E"/>
<path d="M29.4935 42.2349L30.7824 42.3093C30.517 43.8357 31.4268 44.878 33.0947 44.878C34.6109 44.878 35.9377 44.0218 36.1651 42.8305C36.3546 41.7509 35.4828 41.0064 34.0423 41.0064H32.7156L32.9051 39.8523H34.2319C35.4449 39.8523 36.5063 39.0705 36.6579 38.0282C36.8474 37.023 35.9756 36.3529 34.6867 36.3529C33.1326 36.3529 31.8817 37.3581 31.6542 38.661L30.3654 38.5866C30.7445 36.5763 32.4882 35.1989 34.7626 35.1989C36.8853 35.1989 38.2879 36.3901 37.9846 38.1026C37.7951 39.2194 36.9612 40.0384 35.8619 40.299L35.7481 40.4479C36.9232 40.6713 37.6435 41.7509 37.416 43.0911C37.1128 44.8036 35.2554 46.0321 33.0568 46.0321C30.517 46.0321 29.1145 44.4313 29.4935 42.2349Z" fill="#001A3E"/>
<path d="M45.8692 45.6599L47.3855 37.2836H47.2718L40.9035 45.6599H39.0081L40.8277 35.5339H42.1544L40.6381 43.9101H40.7518L47.1202 35.5339H49.0155L47.196 45.6599H45.8692Z" fill="#001A3E"/>
<path d="M50.0381 40.5969C50.0381 37.4325 52.3504 35.1989 55.6104 35.1989C58.8704 35.1989 61.1827 37.4697 61.1827 40.5969C61.1827 43.7984 58.8704 46.0321 55.6104 46.0321C52.3504 46.0321 50.0381 43.7984 50.0381 40.5969ZM59.818 40.5969C59.818 38.1026 58.0743 36.3529 55.6104 36.3529C53.1464 36.3529 51.3648 38.1398 51.3648 40.5969C51.3648 43.0539 53.1464 44.878 55.6104 44.878C58.0743 44.878 59.818 43.0911 59.818 40.5969Z" fill="#001A3E"/>
<path d="M63.2684 35.5712H64.5952V39.8151H70.1295V35.5712H71.4563V45.6971H70.1295V40.9692H64.5952V45.6599H63.2684V35.5712Z" fill="#001A3E"/>
<path d="M81.1983 45.6599V37.2836H81.0467L76.1567 45.6599H74.2614V35.5339H75.5881V43.9474H75.7018L80.5918 35.5712H82.4871V45.6971H81.1983V45.6599Z" fill="#001A3E"/>
<path d="M84.6857 40.5969C84.6857 37.4697 86.9222 35.1989 90.0306 35.1989C92.3429 35.1989 94.3898 36.7624 94.9205 38.8844L93.6317 39.0705C93.2526 37.507 91.7364 36.3901 90.0306 36.3901C87.6803 36.3901 86.0125 38.1771 86.0125 40.6341C86.0125 43.0911 87.6803 44.9153 90.0306 44.9153C91.6985 44.9153 93.2147 43.7984 93.6317 42.3093L94.9205 42.5699C94.4277 44.5802 92.3808 46.0693 90.0306 46.0693C86.9222 46.0321 84.6857 43.7612 84.6857 40.5969Z" fill="#001A3E"/>
<path d="M99.2028 36.7252H95.7912V35.5712H103.941V36.7252H100.53V45.6971H99.2028V36.7252Z" fill="#001A3E"/>
<path d="M104.776 40.5969C104.776 37.4325 107.089 35.1989 110.349 35.1989C113.609 35.1989 115.921 37.4697 115.921 40.5969C115.921 43.7984 113.609 46.0321 110.349 46.0321C107.089 46.0321 104.776 43.7984 104.776 40.5969ZM114.594 40.5969C114.594 38.1026 112.85 36.3529 110.386 36.3529C107.923 36.3529 106.141 38.1398 106.141 40.5969C106.141 43.0539 107.923 44.878 110.386 44.878C112.85 44.878 114.594 43.0911 114.594 40.5969Z" fill="#001A3E"/>
<path d="M118.043 35.5712H122.516C124.411 35.5712 125.776 36.688 125.776 38.2888C125.776 39.2567 125.132 40.1129 124.26 40.3735V40.5224C125.321 40.8203 126.041 41.751 126.041 42.8306C126.041 44.4686 124.563 45.6599 122.478 45.6599H118.005V35.5712H118.043ZM122.402 39.8896C123.615 39.8896 124.525 39.2195 124.525 38.2888C124.525 37.3581 123.653 36.688 122.402 36.688H119.408V39.8896H122.402ZM122.364 44.543C123.767 44.543 124.79 43.7985 124.79 42.7933C124.79 41.7882 123.767 41.0809 122.364 41.0809H119.408V44.543H122.364Z" fill="#001A3E"/>
</svg>
