<svg width="1368" height="78" viewBox="0 0 1368 78" fill="none" xmlns="http://www.w3.org/2000/svg">
<path d="M0 33.3259C0 14.0199 13.5066 0 32.2784 0C46.2428 0 58.6047 9.65301 61.8097 22.7535L54.0262 23.9027C51.737 14.2497 42.58 7.35468 32.2784 7.35468C18.0851 7.35468 8.01237 18.3867 8.01237 33.5557C8.01237 48.7248 18.0851 59.9866 32.2784 59.9866C42.3511 59.9866 51.5081 53.0916 54.0262 43.8983L61.8097 45.5071C58.8337 57.9181 46.4717 67.1115 32.2784 67.1115C13.5066 66.6518 0 52.632 0 33.3259Z" fill="white"/>
<path d="M70.7341 33.3259C70.7341 13.79 84.6985 0 104.386 0C124.074 0 138.038 14.0199 138.038 33.3259C138.038 53.0916 124.074 66.8816 104.386 66.8816C84.6985 66.8816 70.7341 52.8618 70.7341 33.3259ZM129.797 33.3259C129.797 17.927 119.266 7.12485 104.386 7.12485C89.506 7.12485 78.7465 18.1569 78.7465 33.3259C78.7465 48.4949 89.506 59.7568 104.386 59.7568C119.266 59.7568 129.797 48.4949 129.797 33.3259Z" fill="white"/>
<path d="M146.968 33.3259C146.968 13.79 160.932 0 180.62 0C200.307 0 214.272 14.0199 214.272 33.3259C214.272 53.0916 200.307 66.8816 180.62 66.8816C160.932 66.8816 146.968 52.8618 146.968 33.3259ZM206.26 33.3259C206.26 17.927 195.729 7.12485 180.849 7.12485C165.969 7.12485 155.209 18.1569 155.209 33.3259C155.209 48.4949 165.969 59.7568 180.849 59.7568C195.729 59.7568 206.26 48.4949 206.26 33.3259Z" fill="white"/>
<path d="M227.092 2.06494H270.358V8.95996H235.333V25.9677H252.731C266.696 25.9677 274.937 33.3224 274.937 45.2737C274.937 57.2251 266.238 64.5798 252.273 64.5798H227.32V2.06494H227.092ZM250.671 57.4549C260.743 57.4549 266.696 52.6284 266.696 45.2737C266.696 37.919 260.744 33.0925 251.358 33.0925H235.104V57.4549H250.671Z" fill="white"/>
<path d="M360.097 64.5798H286.612V2.06494H294.624V57.4549H318.204V2.06494H326.216V57.4549H349.566V2.06494H357.579V57.4549H368.338V77.9101H360.326V64.5798H360.097Z" fill="white"/>
<path d="M379.103 2.06494H421.912V9.1898H387.344V28.7257H418.478V35.8505H387.344V57.4549H422.828V64.5798H379.332V2.06494H379.103Z" fill="white"/>
<path d="M431.756 33.3259C431.756 14.0199 445.262 0 464.034 0C477.998 0 490.36 9.65301 493.565 22.7535L485.782 23.9027C483.493 14.2497 474.336 7.35468 464.034 7.35468C449.841 7.35468 439.768 18.3867 439.768 33.5557C439.768 48.7248 449.841 59.9866 464.034 59.9866C474.107 59.9866 483.264 53.0916 485.782 43.8983L493.565 45.5071C490.589 57.9181 478.227 67.1115 464.034 67.1115C445.262 66.6518 431.756 52.632 431.756 33.3259Z" fill="white"/>
<path d="M520.804 9.1898H500.201V2.06494H549.42V9.1898H528.816" fill="white"/>
<path d="M522.403 9.1897V64.5797H515.535V9.1897" fill="white"/>
<path d="M534.082 9.1897V64.5797H527.214V9.1897" fill="white"/>
<path d="M557.428 2.06494H584.441C595.887 2.06494 604.129 8.95996 604.129 18.8428C604.129 24.8185 600.237 30.1047 594.972 31.7135V32.6329C601.382 34.4715 605.731 40.2174 605.731 46.8825C605.731 56.9952 596.803 64.3499 584.212 64.3499H557.199V2.06494H557.428ZM583.526 28.9555C590.851 28.9555 596.345 24.8185 596.345 19.0727C596.345 13.3268 591.08 9.18981 583.526 9.18981H565.441V28.9555H583.526ZM583.297 57.4549C591.767 57.4549 597.948 52.8582 597.948 46.6527C597.948 40.4472 591.767 36.0804 583.297 36.0804H565.441V57.4549H583.297Z" fill="white"/>
<path d="M615.119 33.3259C615.119 13.79 629.084 0 648.771 0C668.459 0 682.423 14.0199 682.423 33.3259C682.423 53.0916 668.459 66.8816 648.771 66.8816C628.855 66.6518 615.119 52.8618 615.119 33.3259ZM674.182 33.3259C674.182 17.927 663.651 7.12485 648.771 7.12485C633.891 7.12485 623.132 18.1569 623.132 33.3259C623.132 48.4949 633.891 59.7568 648.771 59.7568C663.651 59.7568 674.182 48.4949 674.182 33.3259Z" fill="white"/>
<path d="M759.786 64.5834L768.943 12.8708H768.256L729.568 64.5834H718.121L729.11 2.0686H737.122L727.965 53.7812H728.652L767.111 2.0686H778.557L767.569 64.5834H759.786Z" fill="white"/>
<path d="M784.513 43.4386L792.296 43.8983C790.694 53.3215 796.188 59.7568 806.261 59.7568C815.418 59.7568 823.43 54.4706 824.804 47.1159C825.948 40.4508 820.683 35.8541 811.984 35.8541H803.972L805.116 28.7292H813.129C820.454 28.7292 826.864 23.9027 827.78 17.4674C828.924 11.2619 823.659 7.12485 815.876 7.12485C806.49 7.12485 798.935 13.3304 797.562 21.3746L789.778 20.9149C792.067 8.50385 802.598 0 816.333 0C829.153 0 837.623 7.35469 835.792 17.927C834.647 24.8221 829.611 29.8784 822.972 31.4872L822.286 32.4066C829.382 33.7856 833.732 40.4508 832.358 48.7248C830.527 59.2971 819.31 66.8817 806.032 66.8817C790.694 66.8817 782.224 56.9988 784.513 43.4386Z" fill="white"/>
<path d="M883.409 64.5834L892.566 12.8708H891.879L853.419 64.5834H841.973L852.962 2.0686H860.974L851.817 53.7812H852.504L890.963 2.0686H902.409L891.421 64.5834H883.409Z" fill="white"/>
<path d="M908.585 33.3259C908.585 13.79 922.549 0 942.237 0C961.924 0 975.889 14.0199 975.889 33.3259C975.889 53.0916 961.924 66.8817 942.237 66.8817C922.549 66.8817 908.585 53.0916 908.585 33.3259ZM967.648 33.3259C967.648 17.927 957.117 7.12485 942.237 7.12485C927.357 7.12485 916.597 18.1569 916.597 33.3259C916.597 48.4949 927.357 59.7568 942.237 59.7568C957.117 59.7568 967.648 48.7248 967.648 33.3259Z" fill="white"/>
<path d="M988.485 2.29834H996.497V28.4994H1029.92V2.29834H1037.93V64.8131H1029.92V35.6242H996.497V64.5833H988.485V2.29834Z" fill="white"/>
<path d="M1096.77 64.5834V12.8708H1095.85L1066.32 64.5834H1054.87V2.0686H1062.89V54.0111H1063.57L1093.1 2.29843H1104.55V64.8132H1096.77V64.5834Z" fill="white"/>
<path d="M1117.83 33.3259C1117.83 14.0199 1131.33 0 1150.11 0C1164.07 0 1176.43 9.65303 1179.64 22.7536L1171.85 23.9027C1169.56 14.2497 1160.41 7.35468 1150.11 7.35468C1135.91 7.35468 1125.84 18.3867 1125.84 33.5558C1125.84 48.7248 1135.91 59.9866 1150.11 59.9866C1160.18 59.9866 1169.34 53.0916 1171.85 43.8983L1179.64 45.5071C1176.66 57.9181 1164.3 67.1115 1150.11 67.1115C1131.33 66.8816 1117.83 52.8618 1117.83 33.3259Z" fill="white"/>
<path d="M1205.5 9.42319H1184.9V2.29834H1234.11V9.42319H1213.51V64.8131H1205.5V9.42319Z" fill="white"/>
<path d="M1239.16 33.3259C1239.16 13.79 1253.12 0 1272.81 0C1292.5 0 1306.46 14.0199 1306.46 33.3259C1306.46 53.0916 1292.5 66.8817 1272.81 66.8817C1253.12 66.8817 1239.16 53.0916 1239.16 33.3259ZM1298.45 33.3259C1298.45 17.927 1287.92 7.12485 1273.04 7.12485C1258.16 7.12485 1247.4 18.1569 1247.4 33.3259C1247.4 48.4949 1258.16 59.7568 1273.04 59.7568C1287.92 59.7568 1298.45 48.7248 1298.45 33.3259Z" fill="white"/>
<path d="M1319.28 2.29834H1346.29C1357.74 2.29834 1365.98 9.19336 1365.98 19.0762C1365.98 25.0519 1362.09 30.3381 1356.82 31.9469V32.8663C1363.23 34.7049 1367.58 40.4508 1367.58 47.1159C1367.58 57.2286 1358.65 64.5833 1346.06 64.5833H1319.05V2.29834H1319.28ZM1345.6 28.9591C1352.93 28.9591 1358.42 24.8221 1358.42 19.0762C1358.42 13.3304 1353.16 9.19336 1345.6 9.19336H1327.52V28.9591H1345.6ZM1345.38 57.6883C1353.85 57.6883 1360.03 53.0916 1360.03 46.8861C1360.03 40.6806 1353.85 36.3138 1345.38 36.3138H1327.52V57.6883H1345.38Z" fill="white"/>
</svg>
