<svg width="68" height="30" viewBox="0 0 68 30" fill="none" xmlns="http://www.w3.org/2000/svg">
<g clip-path="url(#clip0_490_2809)">
<path d="M39.8173 0.680616C39.4628 0.230531 38.9253 0 38.2048 0C37.4386 0 36.8439 0.230531 36.3865 0.702572C35.9405 1.16363 35.7118 1.70154 35.7118 2.29434C35.7118 2.7554 35.8261 3.17255 36.0548 3.52384C35.2886 3.87512 34.5682 3.87512 33.8706 3.52384C34.0993 3.15059 34.2136 2.73344 34.2136 2.29434C34.2136 1.70154 33.9849 1.16363 33.5389 0.702572C33.1044 0.230531 32.4982 0 31.7435 0C31.023 0 30.497 0.230531 30.131 0.702572C29.7765 1.16363 29.5935 1.69056 29.5935 2.2614C29.5935 3.26037 30.0395 4.01783 30.943 4.55574C31.8464 5.08267 33.2073 5.35711 35.0256 5.35711C36.8211 5.35711 38.1591 5.08267 39.0396 4.54476C39.9202 4.00685 40.3548 3.23842 40.3548 2.23945C40.3548 1.64665 40.1718 1.1307 39.8173 0.680616Z" fill="white"/>
<path d="M11.4032 5.89307C6.01741 5.89307 1.47388 9.50289 0 14.4716H5.30818C6.70448 11.0277 9.65224 8.75603 12.6886 9.09834C15.847 9.45103 18.0966 12.5318 18.3293 16.3906C18.3847 17.2619 17.5203 17.9569 16.6116 17.7598C14.2512 17.2412 12.5889 13.7351 9.24221 14.5546C7.49129 14.9799 6.15039 16.7537 4.8095 19.0461L5.00897 19.181C5.90659 18.3926 7.41372 17.3346 8.97625 17.8325C10.572 18.3407 11.7578 20.1145 13.1873 20.488C15.5921 21.1207 17.5868 19.6063 18.2406 18.6312C17.5646 23.5584 13.9187 27.2097 10.1288 26.7844C7.51345 26.4836 5.52981 24.326 4.78733 21.4112H0C1.47388 26.3799 6.01741 30.0001 11.4032 30.0001C17.9747 30.0001 23.3161 24.6061 23.3161 17.9466C23.3161 11.2871 17.9857 5.89307 11.4032 5.89307Z" fill="white"/>
<path d="M68.1547 29.4642V25.8928H57.3934V29.4642H68.1547Z" fill="white"/>
<path d="M43.4307 6.26221H39.1262V29.4763H43.4307V6.26221Z" fill="white"/>
<path d="M41.0112 12.0409L39.6373 10.8931L28.9156 23.6148L30.2896 24.7626L41.0112 12.0409Z" fill="white"/>
<path d="M30.876 6.26221H26.5715V29.4763H30.876V6.26221Z" fill="white"/>
<path d="M46.6592 29.4642V25.8928H35.8979V29.4642H46.6592Z" fill="white"/>
<path d="M34.1043 29.4642V25.8928H23.3431V29.4642H34.1043Z" fill="white"/>
<path d="M34.1043 9.83361V6.26221L23.3431 6.26221V9.83361L34.1043 9.83361Z" fill="white"/>
<path d="M46.6592 9.83361V6.26221L35.8979 6.26221V9.83361L46.6592 9.83361Z" fill="white"/>
<path d="M64.7837 6.26221L60.4708 6.26221C60.4708 8.50616 60.3716 10.437 60.3716 12.0652C60.3716 18.5361 54.0732 19.8407 52.54 18.3691C49.5287 15.4781 55.452 8.09912 58.8273 6.26221H52.7165C50.7641 8.09912 47.1571 12.1904 47.1571 16.9914C47.1571 18.6822 48.2381 22.0951 52.3635 22.857C55.3858 23.4102 59.3347 20.9157 60.4819 18.3274V21.375V29.1192H65.0926V6.26221H64.7837Z" fill="white"/>
</g>
<defs>
<clipPath id="clip0_490_2809">
<rect width="68" height="30" fill="white"/>
</clipPath>
</defs>
</svg>
