<svg width="137" height="30" viewBox="0 0 137 30" fill="none" xmlns="http://www.w3.org/2000/svg">
<g clip-path="url(#clip0_490_2804)">
<path d="M37.6491 18.969C37.5605 15.5089 36.5389 12.6829 34.5803 10.7762C32.6216 8.86949 29.8905 7.92041 26.3996 7.92041C24.2821 7.87565 22.1848 8.34262 20.283 9.28232C18.5773 10.1391 17.1634 11.489 16.2222 13.1596C15.2477 14.9629 14.76 16.9927 14.808 19.0457C14.7635 21.0677 15.2609 23.0644 16.2475 24.8253C17.2009 26.4808 18.62 27.8139 20.3252 28.6558C22.2446 29.5859 24.3549 30.0453 26.484 29.9965C29.2981 29.9965 31.6746 29.3679 33.6136 28.111C34.5466 27.5339 35.3568 26.7759 35.9973 25.881C36.6378 24.9861 37.096 23.972 37.3452 22.8973H34.1286C33.8047 24.4723 32.8994 25.8644 31.5958 26.7917C30.1475 27.7799 28.426 28.2804 26.6781 28.2216C24.1454 28.2216 22.1994 27.4059 20.8402 25.7744C19.464 24.1444 18.7802 22.0419 18.7802 19.1861V18.969H37.6491ZM21.2919 11.6231C22.6047 10.3463 24.3396 9.69524 26.484 9.69524C28.6284 9.69524 30.2577 10.3294 31.5283 11.5977C32.7989 12.866 33.5967 15.2621 33.9133 17.6284H18.8858C19.1897 15.2919 19.9917 12.9042 21.3088 11.6231H21.2919ZM133.049 0V29.5624H137V0H133.049ZM6.54713 9.21852C5.31976 10.1403 4.41139 11.4283 3.95101 12.8999V8.35453H0V29.5624H3.95101V19.2202C3.95101 16.7091 4.49419 14.6322 5.58045 12.9894C6.05761 12.2117 6.72922 11.5742 7.52793 11.1409C8.32664 10.7076 9.22437 10.4938 10.1309 10.5209C10.7504 10.4892 11.3685 10.6074 11.9334 10.8657L12.3217 8.09923C11.8478 7.96032 11.3543 7.90129 10.8612 7.92467C9.32707 7.88108 7.8195 8.33457 6.55981 9.21852H6.54713ZM129.731 18.969C129.642 15.5089 128.621 12.6829 126.658 10.7762C124.695 8.86949 121.972 7.92041 118.481 7.92041C116.363 7.87563 114.264 8.34258 112.361 9.28232C110.656 10.1391 109.244 11.4891 108.304 13.1596C107.33 14.9629 106.842 16.9927 106.89 19.0457C106.846 21.0671 107.342 23.0632 108.325 24.8253C109.28 26.4809 110.701 27.8139 112.407 28.6558C114.327 29.5859 116.437 30.0453 118.566 29.9965C121.38 29.9965 123.757 29.3679 125.696 28.111C126.628 27.5331 127.438 26.775 128.078 25.8802C128.718 24.9854 129.177 23.9716 129.427 22.8973H126.211C125.882 24.4768 124.966 25.8699 123.652 26.7917C122.206 27.7804 120.486 28.281 118.739 28.2216C116.206 28.2216 114.26 27.4059 112.901 25.7744C111.525 24.1444 110.837 22.0419 110.837 19.1861V18.969H129.731ZM113.369 11.6231C114.686 10.3378 116.419 9.69524 118.566 9.69524C120.657 9.69524 122.345 10.3294 123.631 11.5977C124.898 12.8745 125.7 15.2621 126.016 17.6284H110.989C111.267 15.2919 112.069 12.9042 113.382 11.6231H113.369ZM103.568 18.969C103.483 15.5089 102.458 12.6829 100.499 10.7762C98.5403 8.86949 95.8134 7.92041 92.3225 7.92041C90.2036 7.8753 88.1049 8.34227 86.2017 9.28232C84.4971 10.1391 83.0846 11.4891 82.1451 13.1596C81.1672 14.9618 80.6781 16.9921 80.7268 19.0457C80.6842 21.0675 81.1813 23.0637 82.1662 24.8253C83.1196 26.4808 84.5388 27.8139 86.2439 28.6558C88.165 29.5855 90.2765 30.0449 92.4069 29.9965C95.221 29.9965 97.5962 29.3679 99.5324 28.111C100.465 27.5334 101.276 26.7754 101.917 25.8806C102.558 24.9858 103.017 23.9719 103.268 22.8973H100.047C99.7251 24.473 98.8194 25.8656 97.5146 26.7917C96.068 27.7804 94.3477 28.281 92.601 28.2216C90.0683 28.2216 88.121 27.4059 86.7589 25.7744C85.387 24.1444 84.6989 22.0419 84.6989 19.1861V18.969H103.568ZM87.2105 11.6231C88.5275 10.3378 90.2597 9.69524 92.4069 9.69524C94.495 9.69524 96.1764 10.3294 97.4512 11.5977C98.7176 12.8745 99.5197 15.2621 99.8321 17.6284H84.8087C85.1042 15.2919 85.9062 12.9042 87.2232 11.6231H87.2105ZM70.676 1.68537C69.5869 2.6983 69.0437 4.15672 69.0466 6.06058V8.88654H65.2222L65.1884 10.1293H69.0466V29.5624H72.9935V10.1293H78.3628L78.3249 8.88654H72.9935V5.62646C72.9372 4.6405 73.2609 3.6707 73.8969 2.91958C74.2196 2.58827 74.6086 2.33003 75.038 2.16199C75.4674 1.99395 75.9274 1.91993 76.3873 1.94493C77.2226 1.91664 78.0368 2.2122 78.6625 2.77068L79.2198 0.949086C78.035 0.381953 76.731 0.114582 75.4207 0.1702C73.3551 0.1702 71.7778 0.675273 70.6887 1.68537H70.676ZM53.2677 12.07L52.1026 12.4105C52.7314 14.63 54.1823 16.521 56.155 17.6922H45.9016V18.918H56.155C54.1811 20.09 52.73 21.9827 52.1026 24.204L53.2677 24.5445C54.0444 21.8376 55.9355 19.9905 59.0507 18.8839V17.7263C55.9312 16.624 54.0401 14.7726 53.2677 12.07Z" fill="white"/>
</g>
<defs>
<clipPath id="clip0_490_2804">
<rect width="137" height="30" fill="white"/>
</clipPath>
</defs>
</svg>
