<svg width="224" height="30" viewBox="0 0 224 30" fill="none" xmlns="http://www.w3.org/2000/svg">
<g clip-path="url(#clip0_490_2798)">
<path d="M209.274 0H14.7438C10.8335 5.92805e-08 7.08337 1.58035 4.31837 4.3934C1.55336 7.20644 0 11.0218 0 15C0 18.9782 1.55336 22.7936 4.31837 25.6066C7.08337 28.4196 10.8335 30 14.7438 30H209.274C213.185 30 216.935 28.4196 219.7 25.6066C222.465 22.7936 224.018 18.9782 224.018 15C224.018 11.0218 222.465 7.20644 219.7 4.3934C216.935 1.58035 213.185 5.92805e-08 209.274 0ZM222.145 15C222.141 18.4717 220.784 21.8 218.371 24.2549C215.958 26.7097 212.687 28.0905 209.274 28.0942H14.7438C11.3303 28.0942 8.05666 26.7146 5.64296 24.259C3.22926 21.8034 1.87326 18.4728 1.87326 15C1.87326 11.5272 3.22926 8.19664 5.64296 5.74101C8.05666 3.28537 11.3303 1.90581 14.7438 1.90581H209.274C212.686 1.91015 215.958 3.29111 218.37 5.74581C220.783 8.2005 222.141 11.5285 222.145 15Z" fill="white"/>
<path d="M27.7228 16.0892H33.7117V14.3054H27.7228V11.9138H34.1916V9.87183H24.8322V20.7199H34.3715V18.678H27.7228V16.0892Z" fill="white"/>
<path d="M35.4696 11.9748H39.5114V20.7199H42.462V11.9748H46.5061V9.87183H35.4696V11.9748Z" fill="white"/>
<path d="M47.3481 11.9748H51.3922V20.7199H54.3428V11.9748H58.3869V9.87183H47.3481V11.9748Z" fill="white"/>
<path d="M62.5949 16.0892H68.5861V14.3054H62.5949V11.9138H69.0636V9.87183H59.7042V20.7199H69.2435V18.678H62.5949V16.0892Z" fill="white"/>
<path d="M78.7575 16.7133C80.7784 16.4998 82.2617 15.2206 82.2617 13.4275C82.2617 11.2799 80.2985 9.8623 77.3341 9.8623H71.269V20.7198H74.2335V16.9105H75.6684L79.3088 20.7198H82.6816L78.6075 16.7298L78.7575 16.7133ZM74.2335 15.1291V11.7916H76.9442C78.3284 11.7916 79.3273 12.4159 79.3273 13.4509C79.3273 14.486 78.3676 15.1291 76.9442 15.1291H74.2335Z" fill="white"/>
<path d="M90.0526 14.2746C88.4377 14.0774 87.012 13.8943 87.012 12.8429C87.012 12.0355 87.8956 11.5003 89.3928 11.5003C90.9961 11.5003 91.9835 12.1716 91.9697 13.3451H94.6942C94.6942 11.0755 92.5995 9.58984 89.319 9.58984C86.0385 9.58984 84.0614 10.9371 84.0614 13.0259C84.0614 15.6452 87.072 15.9809 89.3051 16.2555C90.8162 16.4526 92.1196 16.6662 92.1196 17.7036C92.1196 18.572 91.1968 19.0884 89.6789 19.0884C87.8217 19.0884 86.7721 18.342 86.7582 17.1544H83.9437C83.9576 19.4709 86.1446 21.0082 89.5889 21.0082C92.9571 21.0082 95.0702 19.6516 95.0702 17.551C95.0702 14.9763 92.2788 14.5632 90.0526 14.2746Z" fill="white"/>
<path d="M118.087 9.87183H113.339V20.7199H118.087C122.47 20.7199 125.395 18.5559 125.395 15.2959C125.395 12.0358 122.475 9.87183 118.087 9.87183ZM118.087 18.739H116.213V11.8527H118.087C120.691 11.8527 122.47 13.1929 122.47 15.2959C122.47 17.3988 120.691 18.739 118.087 18.739Z" fill="white"/>
<path d="M135.747 16.0279C135.747 17.5511 134.639 18.6097 133.036 18.6097C131.433 18.6097 130.311 17.5582 130.311 16.0279V9.58057H127.345V16.0889C127.345 18.8749 129.682 20.7197 133.036 20.7197C136.39 20.7197 138.697 18.8749 138.697 16.0889V9.58057H135.747V16.0279Z" fill="white"/>
<path d="M147.461 18.9054C145.201 18.9054 143.597 17.4291 143.597 15.2956C143.597 13.1622 145.184 11.7 147.461 11.7C149.125 11.7 150.562 12.6599 150.922 14.0001L153.676 13.7255C153.199 11.2892 150.576 9.58057 147.415 9.58057C143.477 9.58057 140.647 11.9276 140.647 15.2956C140.647 18.6637 143.48 21.0084 147.415 21.0084C150.645 21.0084 153.254 19.349 153.704 16.9714L150.922 16.664C150.532 17.9619 149.079 18.9054 147.461 18.9054Z" fill="white"/>
<path d="M159.208 9.87183L154.938 20.7199H157.937L158.719 18.7765H164.007L164.784 20.7129H167.783L163.476 9.87183H159.208ZM159.356 16.9271L161.243 12.0358H161.423L163.356 16.9271H159.356Z" fill="white"/>
<path d="M167.361 11.9748H171.405V20.7199H174.356V11.9748H178.398V9.87183H167.361V11.9748Z" fill="white"/>
<path d="M182.97 9.87183H180.02V20.7199H182.97V9.87183Z" fill="white"/>
<path d="M192.002 9.58057C187.85 9.58057 184.994 11.8666 184.994 15.2956C184.994 18.7247 187.854 21.0084 192.002 21.0084C196.15 21.0084 199.025 18.7388 199.025 15.2956C199.025 11.8525 196.15 9.58057 192.002 9.58057ZM192.002 18.9054C189.621 18.9054 187.944 17.4291 187.944 15.2956C187.944 13.1622 189.633 11.7 192.002 11.7C194.371 11.7 196.06 13.1622 196.06 15.2956C196.06 17.4291 194.399 18.9054 192.002 18.9054Z" fill="white"/>
<path d="M209.452 17.4434H209.272L204.467 9.87183H201.052V20.7199H203.853V13.1624H204.031L208.838 20.7199H212.269V9.87183H209.452V17.4434Z" fill="white"/>
<path d="M104.81 16.6149H109.468V16.1478H109.927V15.6808H109.468V14.9485H103.894V12.7141H104.353V14.4814H109.468V14.9485H109.927V15.6808H110.386V14.0143H104.81V12.7141H109.915V12.247H110.375V11.78H109.915V10.8036H102.125V10.3389H101.666V10.8036H101.207V20.9428H110.082V20.4781H110.541V20.0111H110.082V19.037H103.894V16.6149H104.353V18.57H110.082V19.0347H110.541V20.0111H111V18.1029H104.81V16.6149Z" fill="white"/>
<path d="M109.915 10.8036H110.374V11.78H110.834V9.87183H102.125V10.3389H109.915V10.8036Z" fill="white"/>
<path d="M17.8443 11.7612C19.3992 11.7612 20.3658 12.4137 20.3473 13.5544H22.9888L23.9623 12.2048L22.472 11.9701L23.1088 10.5877H21.5123L21.7615 9.15368L20.1466 9.66064L19.7152 8.27588L18.5617 9.28981L17.5674 8.27588L16.7139 9.34144L15.5373 8.84856L15.0759 9.97045L14.0816 9.80381L13.9086 10.928L13.0435 11.0102V11.9138L12.476 12.294L12.672 13.2328C12.672 15.7817 15.5904 16.108 17.7474 16.3732C19.2146 16.5657 20.4742 16.7745 20.4742 17.7814C20.4742 18.6264 19.5953 19.131 18.1096 19.131C16.3147 19.131 15.2974 18.4034 15.2789 17.2533H12.5636C12.5798 19.5065 14.7045 21.0086 18.0357 21.0086C21.2978 21.0086 23.3418 19.6896 23.3418 17.6453C23.3418 15.141 20.6334 14.7397 18.4741 14.458C16.9307 14.2656 15.5488 14.0825 15.5488 13.0662C15.5488 12.2799 16.3955 11.7612 17.8443 11.7612Z" fill="white"/>
</g>
<defs>
<clipPath id="clip0_490_2798">
<rect width="224" height="30" fill="white"/>
</clipPath>
</defs>
</svg>
