<svg width="74" height="30" viewBox="0 0 74 30" fill="none" xmlns="http://www.w3.org/2000/svg">
<g clip-path="url(#clip0_490_4143)">
<g clip-path="url(#clip1_490_4143)">
<path d="M8.02979 0.159086C6.45532 0.477068 5.11702 1.19253 4.01489 2.46446C2.6766 3.89538 1.96809 5.56479 1.96809 7.63167C1.96809 9.69856 2.44043 10.891 3.62128 12.1629C4.40851 13.0374 5.19574 13.5143 8.58085 15.5812C10.6277 16.7737 11.2574 17.2506 11.8872 17.8071C12.9106 18.8406 13.1468 19.3175 13.1468 20.5895C13.1468 21.5434 13.1468 21.7024 12.8319 22.2589C11.7298 24.4847 8.81702 25.0412 6.92766 23.3718C6.29787 22.8153 5.82553 21.8614 5.74681 21.0664L5.66809 20.51H2.83404H0L0.0787234 21.3049C0.393617 25.2797 3.30638 28.698 7.16383 29.652C8.58085 30.0494 10.3915 30.0494 11.8085 29.652C15.1149 28.857 17.634 26.3926 18.5787 23.1333C18.8149 22.2589 18.8936 22.0204 18.8936 20.51C18.8936 18.9995 18.8936 18.7611 18.5787 17.8866C18.1064 16.2172 17.083 14.5478 15.9021 13.5143C15.1149 12.7989 14.7213 12.5604 11.3362 10.573C7.87234 8.58562 7.71489 8.42663 7.63617 7.47268C7.63617 6.28025 8.65957 5.4058 9.7617 5.64428C9.91915 5.64428 10.7851 6.12126 11.5723 6.59823C12.3596 7.0752 13.0681 7.47268 13.1468 7.39319C13.3043 7.1547 16.1383 2.70294 16.1383 2.62345C15.9021 2.38496 12.9894 0.715555 12.3596 0.477068C11.0213 9.44044e-05 9.44681 -0.158897 8.02979 0.159086ZM33.3787 0.07959C32.1979 0.238581 30.3872 0.715555 29.3638 1.11303C25.8213 2.62345 22.8298 5.56479 21.334 8.9831C19.7596 12.7194 19.7596 17.4891 21.4915 21.3049C22.2787 22.9743 23.9319 25.1207 25.5064 26.3926C27.6319 28.1415 29.5213 29.0955 32.1191 29.652C33.6936 29.9699 36.7638 29.9699 38.3383 29.652C41.8021 28.9365 44.6362 27.1876 46.9191 24.4847C48.6511 22.4179 49.5957 20.351 50.0681 17.5686C50.3043 16.2967 50.3043 13.5143 50.0681 12.2424C49.3596 8.10865 46.9191 4.61084 43.3766 2.22597C41.8021 1.19253 40.2277 0.556564 38.2596 0.159086C37.1574 0.07959 34.5596 9.44044e-05 33.3787 0.07959ZM52.7447 15.0248V30.0494H55.5787H58.4128V21.8614V13.6733L63.0574 21.7819C65.6553 26.2336 67.7809 29.8904 67.8596 29.9699C67.9383 30.0494 68.4894 30.1289 70.9298 30.0494H73.9213L68.8043 21.3049L63.6872 12.5604L67.2298 6.35974C69.1979 2.94143 70.7723 0.159086 70.7723 0.159086C70.7723 0.159086 69.434 0.159086 67.7809 0.159086H64.7894L61.5617 5.80327L58.334 11.4475V5.80327V0.159086H55.5H52.7447V15.0248ZM37.6298 6.04176C38.4957 6.28025 39.6766 6.83672 40.3064 7.31369C41.4872 8.18814 42.9043 9.85755 43.4553 11.209C44.0064 12.4809 44.0851 13.1169 44.0851 15.0248C44.0851 16.8532 44.0064 17.5686 43.4553 18.8406C42.7468 20.4305 41.1723 22.3384 39.7553 23.1333C37 24.8027 33.1426 24.7232 30.466 22.9743C28.5766 21.7024 27.0809 19.715 26.5298 17.4891C26.3723 16.7737 26.2936 16.3762 26.2936 15.0248C26.2936 13.6733 26.3723 13.2759 26.5298 12.5604C27.0021 10.9705 27.8681 9.46007 29.0489 8.26764C30.3872 6.91621 31.883 6.12126 33.6936 5.80327C34.4809 5.64428 36.7638 5.72378 37.6298 6.04176Z" fill="white"/>
</g>
</g>
<defs>
<clipPath id="clip0_490_4143">
<rect width="74" height="30" fill="white"/>
</clipPath>
<clipPath id="clip1_490_4143">
<rect width="74" height="30.2083" fill="white"/>
</clipPath>
</defs>
</svg>
