<svg width="74" height="52" viewBox="0 0 74 52" fill="none" xmlns="http://www.w3.org/2000/svg">
<g clip-path="url(#clip0_2006_843)">
<mask id="mask0_2006_843" style="mask-type:luminance" maskUnits="userSpaceOnUse" x="0" y="0" width="74" height="52">
<path d="M74 0H0V51.6458H74V0Z" fill="white"/>
</mask>
<g mask="url(#mask0_2006_843)">
<path d="M19.3383 1.84095C19.3374 1.61051 19.2862 1.38305 19.1884 1.1744C19.0906 0.965747 18.9485 0.78092 18.772 0.632782C18.4152 0.304249 17.9469 0.123428 17.4619 0.126864C17.1231 0.12646 16.791 0.220605 16.5029 0.398703C16.1861 0.60307 15.9448 0.905352 15.8158 1.25952L9.77494 14.689L3.71902 1.21421C3.58634 0.879768 3.35306 0.594787 3.05142 0.398649C2.74977 0.202514 2.39466 0.104906 2.03515 0.119313C1.51988 0.11915 1.02112 0.301004 0.62688 0.632782C0.432653 0.777351 0.274858 0.965265 0.166053 1.18156C0.0572471 1.39786 0.000437594 1.63658 0.000145625 1.8787C-0.00315867 2.12281 0.0498093 2.36439 0.154941 2.58472L7.70594 18.6344L5.01026 24.3921C4.89676 24.6381 4.8302 24.9032 4.81393 25.1736C4.81143 25.4001 4.86161 25.6241 4.96058 25.8279C5.05952 26.0317 5.20447 26.2096 5.38404 26.3478C5.73789 26.652 6.18971 26.8183 6.65638 26.8159C6.9977 26.8158 7.3314 26.7147 7.61533 26.5252C7.92474 26.3201 8.16548 26.0268 8.30627 25.6833L19.1835 2.58472C19.286 2.35018 19.3387 2.09691 19.3383 1.84095Z" fill="white"/>
<path d="M57.3126 17.97C57.3011 18.2118 57.3404 18.4535 57.4283 18.6791C57.5161 18.9048 57.6502 19.1096 57.8221 19.2801C58.0006 19.4461 58.2103 19.5751 58.4392 19.6593C58.6681 19.7436 58.9113 19.7815 59.1549 19.7709C59.6849 19.7964 60.204 19.6134 60.601 19.2612C60.7848 19.0932 60.9305 18.8876 61.0273 18.6582C61.1244 18.4288 61.171 18.1812 61.1633 17.9322V1.99576C61.1764 1.73733 61.1363 1.47896 61.0454 1.23671C60.9544 0.994445 60.8149 0.773466 60.6349 0.587491C60.4414 0.412627 60.2156 0.277597 59.9701 0.190136C59.7246 0.102676 59.4644 0.0645009 59.2039 0.0777973C58.9395 0.0659716 58.6751 0.106585 58.4265 0.197299C58.1775 0.288012 57.9489 0.427034 57.7543 0.606369C57.5716 0.787476 57.429 1.00447 57.3346 1.24363C57.2405 1.48278 57.197 1.7389 57.2066 1.99576V11.2042C57.2066 12.8503 56.7437 14.168 55.8172 15.1572C55.3424 15.6549 54.7666 16.0452 54.1283 16.3018C53.4904 16.5584 52.8044 16.6753 52.1172 16.6447C50.8149 16.6447 49.8521 16.2672 49.2216 15.5498C48.591 14.8325 48.2815 13.6847 48.2815 12.1519V1.99576C48.2946 1.73733 48.2546 1.47896 48.1636 1.23671C48.0726 0.994445 47.9327 0.773466 47.7527 0.587491C47.5604 0.412392 47.3353 0.277182 47.0902 0.189693C46.8455 0.102204 46.5853 0.0641717 46.3255 0.0777973C46.0592 0.0619544 45.7925 0.0988218 45.5405 0.186285C45.2884 0.273749 45.0564 0.410087 44.8571 0.587491C44.6756 0.772256 44.5345 0.993042 44.4436 1.2356C44.3526 1.47817 44.3133 1.73712 44.3283 1.99576V12.1896C44.3283 17.3067 46.6516 19.8652 51.2982 19.8652C52.5323 19.8821 53.7506 19.5859 54.8394 19.0044C55.892 18.4264 56.7518 17.5521 57.3126 16.49V17.97Z" fill="white"/>
<path d="M22.2757 48.6684L21.177 48.5932C20.135 48.5138 19.3572 48.1889 18.8475 47.6116C18.3379 47.0338 18.0924 46.1389 18.0924 44.9121V35.4392H21.9548C22.4106 35.4715 22.8627 35.3373 23.2271 35.0616C23.5197 34.7571 23.6831 34.3512 23.6831 33.929C23.6831 33.5067 23.5197 33.1008 23.2271 32.7963C22.8708 32.5023 22.4158 32.3552 21.9548 32.3848H18.0773V28.3526C18.0925 28.0923 18.0515 27.8318 17.957 27.5888C17.8626 27.3458 17.7169 27.126 17.5299 26.9443C17.1312 26.5925 16.6112 26.4097 16.0801 26.4346C15.8203 26.421 15.5604 26.459 15.3155 26.5465C15.0705 26.634 14.8453 26.7692 14.6529 26.9443C14.4709 27.1288 14.3298 27.3495 14.2387 27.5921C14.1477 27.8348 14.1087 28.0939 14.1244 28.3526V32.3848H11.776C11.3149 32.3548 10.8598 32.502 10.5036 32.7963C10.3491 32.9399 10.2283 33.116 10.15 33.3118C10.0717 33.5077 10.0377 33.7185 10.0506 33.929C10.0506 34.9358 10.6257 35.4392 11.776 35.4392H14.1244V44.6361C14.1244 46.8561 14.6466 48.5339 15.6912 49.6689C16.7358 50.8044 18.3139 51.4488 20.4257 51.6022L21.4829 51.6816C22.0972 51.7683 22.723 51.6515 23.2649 51.3493C23.4611 51.2195 23.6203 51.041 23.7269 50.831C23.8334 50.6213 23.8837 50.3873 23.8727 50.1522C23.8836 49.9634 23.8558 49.7741 23.7908 49.5961C23.7259 49.418 23.6253 49.2554 23.4952 49.1178C23.1518 48.8333 22.7215 48.6749 22.2757 48.6684Z" fill="white"/>
<path d="M52.2421 23.6937C51.7218 23.6743 51.213 23.8493 50.8149 24.1845C50.6199 24.3649 50.4676 24.5868 50.3697 24.8338C50.2718 25.0807 50.2302 25.3466 50.2483 25.6116V49.8051C50.229 50.0675 50.2699 50.3308 50.3682 50.5751C50.4661 50.8191 50.6191 51.0376 50.8149 51.2134C51.2188 51.5363 51.7248 51.704 52.2421 51.6851C52.7543 51.7059 53.2569 51.5379 53.6539 51.2134C53.8443 51.0342 53.9919 50.8145 54.0867 50.5709C54.1811 50.3273 54.2204 50.0656 54.2015 49.8051V25.6116C54.2193 25.3483 54.1792 25.0842 54.0848 24.8378C53.9903 24.5913 53.8431 24.3684 53.6539 24.1845C53.2627 23.8477 52.7578 23.6722 52.2421 23.6937Z" fill="white"/>
<path d="M73.2789 48.3967L65.6072 41.6234L72.5767 35.2429C72.7794 35.0718 72.9432 34.86 73.0584 34.6213C73.1737 34.3825 73.2373 34.1222 73.245 33.8573C73.2334 33.3723 73.0357 32.9103 72.6927 32.5672C72.3497 32.2242 71.8875 32.0264 71.4027 32.0148C70.9144 32.0461 70.4549 32.2558 70.1115 32.6038L61.1861 40.9439V25.6116C61.2049 25.3481 61.1656 25.0838 61.0708 24.8372C60.9764 24.5906 60.8288 24.3678 60.6388 24.1844C60.2487 23.8479 59.745 23.6724 59.2305 23.6936C58.709 23.6741 58.1991 23.849 57.7994 24.1844C57.6044 24.3649 57.4521 24.5868 57.3543 24.8338C57.2564 25.0807 57.2147 25.3465 57.2332 25.6116V49.775C57.2147 50.0398 57.2564 50.3057 57.3543 50.5528C57.4521 50.7998 57.6044 51.0214 57.7994 51.2018C58.1991 51.5375 58.709 51.7125 59.2305 51.6928C59.745 51.714 60.2487 51.5387 60.6388 51.2018C60.8288 51.0187 60.9764 50.796 61.0708 50.5493C61.1656 50.3026 61.2049 50.0382 61.1861 49.775V42.5411L70.9344 51.1567C71.2905 51.5059 71.7684 51.7021 72.2672 51.704C72.4965 51.7044 72.7235 51.6558 72.9324 51.5614C73.1413 51.467 73.3278 51.329 73.4793 51.1567C73.8123 50.8083 73.995 50.3435 73.9888 49.8617C73.9931 49.5792 73.9314 49.2994 73.8081 49.045C73.6847 48.7906 73.5036 48.5686 73.2789 48.3967Z" fill="white"/>
<path d="M22.2455 19.8502H32.394C34.1232 19.8865 35.8316 19.4672 37.3475 18.6345C38.7617 17.8309 39.906 16.6261 40.636 15.1723C41.4323 13.5464 41.827 11.7532 41.7876 9.94325C41.8308 8.12196 41.4358 6.31698 40.636 4.68019C39.9072 3.22461 38.7629 2.01828 37.3475 1.21426C35.8312 0.382801 34.1229 -0.0351638 32.394 0.00232233H29.1886C27.4609 -0.0352104 25.7538 0.382778 24.2389 1.21426C22.8219 2.0161 21.6768 3.22302 20.9505 4.68019C20.1493 6.31663 19.7531 8.12165 19.7951 9.94325V15.4706C19.7951 18.6722 20.6107 19.8502 22.2455 19.8502ZM25.1979 4.91425C26.1393 3.7514 27.4695 3.16997 29.1886 3.16997H32.394C34.1157 3.16997 35.4471 3.7514 36.3885 4.91425C37.3299 6.07713 37.7993 7.75343 37.7968 9.94325C37.7968 12.1632 37.3324 13.8434 36.4074 14.9949C35.4824 16.1464 34.1421 16.7165 32.394 16.7165H23.8349C23.8349 16.7165 23.7859 12.1632 23.7859 9.94325C23.7859 7.72325 24.2578 6.07713 25.1979 4.91425Z" fill="white"/>
<path d="M42.9543 33.0606C41.4396 32.228 39.7322 31.8099 38.0045 31.8487H34.7991C33.0703 31.8117 31.3621 32.2296 29.8456 33.0606C28.4312 33.8657 27.2869 35.0717 26.5572 36.5265C25.7986 38.1714 25.4058 39.9611 25.4058 41.7725C25.4058 43.584 25.7986 45.3739 26.5572 47.0188C27.2893 48.468 28.4334 49.6686 29.8456 50.4695C31.3621 51.3004 33.0703 51.7182 34.7991 51.6816H44.9477C46.5861 51.6816 47.3982 50.5034 47.3982 47.3056V41.7856C47.4456 39.9564 47.049 38.1428 46.2427 36.5001C45.5108 35.0535 44.3665 33.8565 42.9543 33.0606ZM43.3582 48.5817H34.7991C33.0548 48.5817 31.7145 48.0117 30.7857 46.86C29.857 45.7084 29.4001 44.0284 29.4001 41.8122C29.4001 39.5961 29.8683 37.9423 30.8084 36.7833C31.7485 35.6242 33.0737 35.039 34.7991 35.039H38.0045C39.726 35.039 41.0588 35.6166 41.9989 36.7833C42.9393 37.9499 43.4187 39.5999 43.4187 41.7856C43.4187 43.9717 43.3582 48.5817 43.3582 48.5817Z" fill="white"/>
</g>
</g>
<defs>
<clipPath id="clip0_2006_843">
<rect width="74" height="51.6458" fill="white"/>
</clipPath>
</defs>
</svg>
